<?xml version="1.0" encoding="UTF-8"?><svg xmlns="http://www.w3.org/2000/svg" width="1200" height="1197.99" xmlns:xlink="http://www.w3.org/1999/xlink" viewBox="0 0 1200 1197.99"><defs><style>.cls-1{fill:url(#linear-gradient-2);}.cls-1,.cls-2,.cls-3{mix-blend-mode:overlay;opacity:.3;}.cls-4{isolation:isolate;}.cls-2{fill:url(#linear-gradient-6);}.cls-3{fill:url(#linear-gradient-4);}.cls-5{fill:url(#linear-gradient-5);}.cls-6{fill:url(#linear-gradient-3);}.cls-7{fill:url(#linear-gradient);}</style><linearGradient id="linear-gradient" x1="1213.88" y1="1183.14" x2="532.13" y2="15.29" gradientUnits="userSpaceOnUse"><stop offset="0" stop-color="#f7d556"/><stop offset=".16" stop-color="#f4ca52"/><stop offset=".43" stop-color="#ecaf48"/><stop offset=".77" stop-color="#df8338"/><stop offset=".82" stop-color="#dd7c36"/></linearGradient><linearGradient id="linear-gradient-2" x1="1111.85" y1="990.07" x2="604.57" y2="-259.79" gradientUnits="userSpaceOnUse"><stop offset=".23" stop-color="#000"/><stop offset=".61" stop-color="#000" stop-opacity="0"/></linearGradient><linearGradient id="linear-gradient-3" x1="1351.09" y1="648.77" x2="-256.77" y2="899.9" gradientUnits="userSpaceOnUse"><stop offset=".4" stop-color="#de7529"/><stop offset="1" stop-color="#a44211"/></linearGradient><linearGradient id="linear-gradient-4" x1="201.83" y1="1223" x2="1189.69" y2="573.95" gradientUnits="userSpaceOnUse"><stop offset="0" stop-color="#000"/><stop offset="1" stop-color="#000" stop-opacity="0"/></linearGradient><linearGradient id="linear-gradient-5" x1="190.35" y1="-319.23" x2="556.95" y2="1226.62" xlink:href="#linear-gradient"/><linearGradient id="linear-gradient-6" x1="876.51" y1="-326.07" x2="65.67" y2="1157.08" gradientUnits="userSpaceOnUse"><stop offset="0" stop-color="#fff"/><stop offset=".09" stop-color="#fff" stop-opacity=".95"/><stop offset=".26" stop-color="#fff" stop-opacity=".8"/><stop offset=".5" stop-color="#fff" stop-opacity=".57"/><stop offset=".79" stop-color="#fff" stop-opacity=".25"/><stop offset="1" stop-color="#fff" stop-opacity="0"/></linearGradient></defs><g class="cls-4"><g id="_图层_1"><g><path class="cls-7" d="M1046.37,999.75c-101.56,112.61-284.39,16.62-256.18-132.22,.25-1.34,.5-2.68,.75-4.02,59.45-325.66-156.79-637.77-483.26-697.06-37.99-6.9-76.03-10.14-113.19-9.85C338.63,25.61,544.44-33.84,751.09,19.59c289.52,74.85,481.99,359,444.17,654.94-16.17,126.53-70.21,237.98-148.89,325.22Z"/><path class="cls-1" d="M1195.27,674.58c-16.19,126.47-70.17,237.98-148.86,325.21-69.33,76.81-176.32,56.59-228.38-11.25,9.24-6.46,17.99-14.24,26.27-23.45,78.69-87.22,132.66-198.62,148.86-325.21C1028.78,361.22,860.14,92.85,598.41,0c50.26,0,101.48,6.34,152.7,19.62,289.55,74.78,481.95,358.95,444.17,654.96Z"/></g><g><path class="cls-6" d="M1154.19,840.79c60.95-138.74-102.12-265.28-226.42-178.26-1.12,.78-2.24,1.56-3.36,2.34-272.89,188.34-647.11,120.59-835.93-151.62-21.97-31.67-40.62-64.91-55.69-98.79C-27.37,599.48,3.24,811.02,137.27,976.76c187.78,232.2,526.66,289.91,781.33,133.47,108.88-66.89,188.37-161.96,235.59-269.44Z"/><path class="cls-3" d="M1154.14,840.77c-47.14,107.44-126.67,202.57-235.58,269.45-254.65,156.5-593.5,98.71-781.34-133.41-12.35-15.32-23.87-31.11-34.55-47.14,192.88,143.58,463.12,161.77,675.07,31.59,108.91-66.88,188.32-162,235.58-269.45,8.64-19.62,12.71-39.01,13.07-57.43,94.52,6.7,173.21,103.14,127.74,206.39Z"/></g><g><path class="cls-5" d="M567.59,.46c151.64-7.99,212.87,188.84,87.42,274.19-1.13,.77-2.25,1.54-3.38,2.31-272.89,188.34-341.23,561.56-152.41,833.76,21.97,31.67,46.58,60.8,73.05,86.81-194.78-9.05-382.45-112.18-490.7-295.72C-70.08,644.67-4.77,307.99,231.76,125.41,332.89,47.35,450.11,6.65,567.59,.46Z"/><path class="cls-2" d="M502.1,1190.15c-168.89-27.76-325.42-126.95-420.54-288.35C-70.05,644.67-4.8,307.98,231.73,125.39,332.85,47.38,450.04,6.7,567.59,.48c64.53-3.47,112.75,30.27,136.98,76.81-96.2,15.2-190.48,54.08-273.72,118.33-236.54,182.58-301.91,519.28-150.18,776.4,55.9,94.76,133.02,168.11,221.42,218.12Z"/></g></g></g></svg>